<svg width="20" height="20" viewBox="0 0 20 20" fill="none" xmlns="http://www.w3.org/2000/svg">
<path d="M19.152 19.9999C18.9271 19.9999 18.7114 19.9121 18.5524 19.7558C18.3934 19.5996 18.3041 19.3876 18.3041 19.1666V0.83333C18.3041 0.612317 18.3934 0.400356 18.5524 0.244077C18.7114 0.0877969 18.9271 0 19.152 0C19.3769 0 19.5926 0.0877969 19.7516 0.244077C19.9106 0.400356 19.9999 0.612317 19.9999 0.83333V19.1666C20.0014 19.2764 19.9806 19.3855 19.9385 19.4873C19.8964 19.589 19.834 19.6815 19.755 19.7592C19.6759 19.8369 19.5818 19.8982 19.4783 19.9395C19.3747 19.9809 19.2638 20.0014 19.152 19.9999ZM15.308 9.34552C15.3182 9.73271 15.2367 10.1169 15.0699 10.4679C14.9031 10.8188 14.6557 11.1269 14.347 11.3677L4.04749 19.2455C3.67892 19.5199 3.24139 19.6899 2.78124 19.7344H2.52121C2.12978 19.744 1.74181 19.6601 1.39063 19.4899C0.972481 19.2894 0.619955 18.9776 0.373114 18.5899C0.127329 18.2036 -0.00203086 17.7567 2.41077e-05 17.301V2.68999C0.00124508 2.2518 0.122295 1.82199 0.350503 1.44555C0.58569 1.07133 0.917176 0.764719 1.31149 0.556664C1.70427 0.34801 2.14735 0.248134 2.59339 0.267704C3.03943 0.287274 3.47169 0.425554 3.84398 0.667775L14.1548 7.4233C14.4827 7.63553 14.754 7.92108 14.9462 8.25663C15.1491 8.58802 15.2728 8.96033 15.308 9.34552Z" fill="white"/>
</svg>
