<svg width="30" height="25" viewBox="0 0 30 25" fill="none" xmlns="http://www.w3.org/2000/svg">
<path d="M26.833 5.60156C26.833 3.88888 25.445 2.50024 23.7324 2.5H5.60156C3.88873 2.5 2.5 3.88873 2.5 5.60156V19.3809C2.50012 21.0936 3.88881 22.4824 5.60156 22.4824H23.7324C25.445 22.4822 26.8329 21.0934 26.833 19.3809V5.60156ZM29.333 19.3809C29.3329 22.4741 26.8257 24.9822 23.7324 24.9824H5.60156C2.5081 24.9824 0.000122663 22.4743 0 19.3809V5.60156C0 2.50802 2.50802 0 5.60156 0H23.7324C26.8258 0.000238105 29.333 2.50817 29.333 5.60156V19.3809Z" fill="white"/>
<path d="M21.0324 12.1283C21.0326 11.4382 21.5923 10.8784 22.2824 10.8783C22.9726 10.8783 23.5322 11.4381 23.5324 12.1283V17.93C23.5324 18.6204 22.9728 19.18 22.2824 19.18H16.4807C15.7904 19.1799 15.2307 18.6203 15.2307 17.93C15.2309 17.2399 15.7906 16.6801 16.4807 16.68H21.0324V12.1283ZM5.80294 12.8538V7.05208C5.80294 6.36173 6.36258 5.80208 7.05294 5.80208H12.8547C13.545 5.80208 14.1047 6.36173 14.1047 7.05208C14.1047 7.74244 13.545 8.30208 12.8547 8.30208H8.30293V12.8538C8.30293 13.5442 7.74329 14.1038 7.05294 14.1038C6.36258 14.1038 5.80294 13.5442 5.80294 12.8538Z" fill="white"/>
</svg>
