<svg width="28" height="29" viewBox="0 0 28 29" fill="none" xmlns="http://www.w3.org/2000/svg">
<path d="M9.88 1.60523C10.068 0.671578 10.8883 0 11.8407 0H16.043C16.9956 0 17.816 0.671886 18.0038 1.60581L18.3352 3.25454C18.4629 3.88965 18.8963 4.41315 19.4615 4.72972C19.5395 4.7734 19.617 4.81801 19.6939 4.86352C20.2494 5.19227 20.9171 5.30483 21.5289 5.09901L23.1563 4.55158C24.057 4.2486 25.0465 4.62123 25.5236 5.44306L27.6137 9.04328C28.0944 9.87125 27.9209 10.9237 27.1999 11.5536L25.932 12.6613C25.4428 13.0886 25.2038 13.7268 25.2109 14.3763C25.2118 14.4587 25.2118 14.5413 25.2109 14.6237C25.2038 15.2732 25.4428 15.9114 25.932 16.3387L27.1997 17.4462C27.9208 18.0762 28.0942 19.1288 27.6134 19.9568L25.5222 23.5576C25.0451 24.3791 24.0559 24.7516 23.1554 24.4489L21.5272 23.9015C20.9163 23.6962 20.2498 23.8082 19.6952 24.1365C19.6186 24.1818 19.5413 24.2263 19.4635 24.2699C18.8974 24.5871 18.4627 25.1112 18.3348 25.7474L18.0038 27.3942C17.816 28.3281 16.9956 29 16.043 29H11.8412C10.8885 29 10.0681 28.3281 9.88039 27.3942L9.54893 25.7455C9.42125 25.1104 8.98782 24.5868 8.42262 24.2703C8.34463 24.2266 8.26717 24.182 8.19026 24.1365C7.63469 23.8077 6.96707 23.6952 6.35521 23.901L4.72757 24.4485C3.82699 24.7514 2.83759 24.3789 2.36041 23.5573L0.269616 19.9571C-0.211317 19.129 -0.0377293 18.0762 0.6836 17.4462L1.95185 16.3387C2.44117 15.9114 2.68035 15.2731 2.67323 14.6235C2.67233 14.5411 2.67233 14.4587 2.67323 14.3763C2.68036 13.7268 2.4413 13.0886 1.95218 12.6613L0.684457 11.5538C-0.0366334 10.9238 -0.210083 9.87118 0.270775 9.04318L2.36182 5.44258C2.83896 4.62098 3.82826 4.24847 4.7288 4.5513L6.35459 5.09803C6.96605 5.30365 7.63321 5.19132 8.18855 4.86305C8.26547 4.81758 8.34292 4.77303 8.4209 4.7294C8.98634 4.41302 9.42006 3.88958 9.54795 3.25439L9.88 1.60523ZM13.9421 19.7727C15.3486 19.7727 16.6975 19.2172 17.6921 18.2284C18.6867 17.2396 19.2454 15.8984 19.2454 14.5C19.2454 13.1016 18.6867 11.7604 17.6921 10.7716C16.6975 9.78279 15.3486 9.22727 13.9421 9.22727C12.5355 9.22727 11.1866 9.78279 10.192 10.7716C9.19747 11.7604 8.63873 13.1016 8.63873 14.5C8.63873 15.8984 9.19747 17.2396 10.192 18.2284C11.1866 19.2172 12.5355 19.7727 13.9421 19.7727Z" fill="white"/>
</svg>
