<svg width="31" height="13" viewBox="0 0 31 13" fill="none" xmlns="http://www.w3.org/2000/svg">
<path d="M28.4297 0.5C28.032 0.5 27.6504 0.658271 27.3691 0.939453C27.0879 1.22067 26.9298 1.60232 26.9297 2V5.16602C25.2995 3.58181 23.3571 2.34707 21.2197 1.54688C18.686 0.598309 15.9575 0.287982 13.2754 0.642578C10.5935 0.997222 8.03984 2.00577 5.83984 3.58008C3.64072 5.15378 1.86218 7.2442 0.661133 9.66699L0.601562 9.80273C0.548389 9.94053 0.515676 10.0856 0.504883 10.2334C0.490538 10.4307 0.515534 10.6297 0.578125 10.8174C0.640684 11.0048 0.739417 11.1781 0.869141 11.3271C0.999053 11.4764 1.15768 11.5987 1.33496 11.6865C1.51218 11.7743 1.70501 11.8269 1.90234 11.8398C2.09972 11.8528 2.29814 11.8266 2.48535 11.7627C2.67253 11.6988 2.84489 11.5977 2.99316 11.4668C3.14146 11.3359 3.263 11.1769 3.34961 10.999V10.998C4.39055 8.89914 5.96057 7.10791 7.9043 5.7998C9.84938 4.49082 12.1023 3.71036 14.4404 3.53711C16.7783 3.36397 19.1208 3.80369 21.2373 4.81152C23.0572 5.67814 24.6552 6.94029 25.9189 8.5H20.4297C20.032 8.5 19.6504 8.65827 19.3691 8.93945C19.0879 9.22067 18.9298 9.60232 18.9297 10C18.9297 10.3978 19.0878 10.7802 19.3691 11.0615C19.6504 11.3426 20.032 11.5 20.4297 11.5H28.4297C28.8274 11.5 29.209 11.3426 29.4902 11.0615C29.7715 10.7802 29.9297 10.3978 29.9297 10V2C29.9296 1.60232 29.7714 1.22067 29.4902 0.939453C29.2089 0.658271 28.8274 0.5 28.4297 0.5Z" fill="white" stroke="white"/>
</svg>
