<svg width="28" height="24" viewBox="0 0 28 24" fill="none" xmlns="http://www.w3.org/2000/svg">
<path fill-rule="evenodd" clip-rule="evenodd" d="M24.2029 5.21468C24.395 5.02522 24.6554 4.9188 24.9268 4.9188C25.1983 4.9188 25.4587 5.02522 25.6507 5.21468L25.6535 5.21738L25.6576 5.22008L25.6671 5.22952L25.6944 5.2565L25.7791 5.34958C25.8474 5.42647 25.943 5.53573 26.0537 5.67467C27.3157 7.29472 28 9.28139 28 11.3254C28 13.3695 27.3157 15.3561 26.0537 16.9762C25.9393 17.1203 25.819 17.2598 25.6931 17.3943L25.6658 17.4213L25.6576 17.4308L25.6535 17.4335L25.6521 17.4348L24.9555 16.7495L25.6521 17.4375C25.4599 17.6273 25.1993 17.7339 24.9275 17.7339C24.6557 17.7339 24.3951 17.6273 24.2029 17.4375C24.0108 17.2477 23.9028 16.9903 23.9028 16.7219C23.9028 16.4535 24.0108 16.1961 24.2029 16.0063L24.2016 16.0076L24.1988 16.009L24.2057 16.0022L24.2507 15.9537C24.2944 15.9069 24.3577 15.8318 24.4406 15.7284C25.3047 14.6143 25.8225 13.2764 25.9311 11.8771C26.0397 10.4779 25.7345 9.07762 25.0525 7.84648C24.8744 7.52247 24.6698 7.21343 24.4406 6.92245C24.3664 6.82779 24.288 6.73642 24.2057 6.64862L24.1988 6.64187C24.0084 6.45175 23.9019 6.19489 23.9027 5.92744C23.9034 5.66 24.0114 5.40373 24.2029 5.21468ZM16.0993 0.393536C17.6878 -0.641108 19.8049 0.485265 19.8049 2.36435V21.6354C19.8049 23.5159 17.6878 24.6409 16.0993 23.6063L7.9042 18.2712C7.84876 18.2347 7.78371 18.215 7.71707 18.2145H3.7561C2.75992 18.2145 1.80454 17.8237 1.10014 17.128C0.395731 16.4323 0 15.4887 0 14.5049V9.4949C0 8.51105 0.395731 7.5675 1.10014 6.87181C1.80454 6.17612 2.75992 5.78529 3.7561 5.78529H7.71707C7.78403 5.7855 7.84958 5.76627 7.90556 5.72998L16.0993 0.393536Z" fill="white"/>
</svg>
