<svg width="27" height="27" viewBox="0 0 27 27" fill="none" xmlns="http://www.w3.org/2000/svg">
<path d="M0 6.5C0.000175993 2.91041 2.91041 0.00017599 6.5 0H9.16699V4.33398H6.5C5.30364 4.33416 4.33416 5.30364 4.33398 6.5V9.16699H0V6.5Z" fill="white"/>
<path d="M26.334 6.5C26.3338 2.91041 23.4236 0.00017599 19.834 0H17.167V4.33398H19.834C21.0303 4.33416 21.9998 5.30364 22 6.5V9.16699H26.334V6.5Z" fill="white"/>
<path d="M0 19.834C0.000175993 23.4236 2.91041 26.3338 6.5 26.334H9.16699V22H6.5C5.30364 21.9998 4.33416 21.0303 4.33398 19.834V17.167H0V19.834Z" fill="white"/>
<path d="M26.334 19.834C26.3338 23.4236 23.4236 26.3338 19.834 26.334H17.167V22H19.834C21.0303 21.9998 21.9998 21.0303 22 19.834V17.167H26.334V19.834Z" fill="white"/>
</svg>
