<svg width="22" height="28" viewBox="0 0 22 28" fill="none" xmlns="http://www.w3.org/2000/svg">
<path d="M10.9174 0C7.38183 0 4.22656 2.489 4.22656 5.88655V13.1296C4.22656 16.5271 7.38183 19.0161 10.9174 19.0161C14.453 19.0161 17.6083 16.5271 17.6083 13.1296V5.88796C17.6083 2.49041 14.453 0 10.9174 0Z" fill="white"/>
<path d="M2.1129 12.325C2.1129 12.0448 2.0016 11.7761 1.80348 11.578C1.60535 11.3799 1.33664 11.2686 1.05645 11.2686C0.776263 11.2686 0.507551 11.3799 0.309427 11.578C0.111304 11.7761 1.28421e-08 12.0448 1.28421e-08 12.325C-0.000131477 15.0375 1.00956 17.6529 2.83235 19.6616C4.65514 21.6703 7.16047 22.9285 9.86022 23.191V25.3546H5.28226C5.00207 25.3546 4.73336 25.4659 4.53523 25.664C4.33711 25.8621 4.22581 26.1308 4.22581 26.411C4.22581 26.6912 4.33711 26.9599 4.53523 27.1581C4.73336 27.3562 5.00207 27.4675 5.28226 27.4675H16.5511C16.8313 27.4675 17.1 27.3562 17.2981 27.1581C17.4962 26.9599 17.6075 26.6912 17.6075 26.411C17.6075 26.1308 17.4962 25.8621 17.2981 25.664C17.1 25.4659 16.8313 25.3546 16.5511 25.3546H11.9731V23.191C14.6729 22.9285 17.1782 21.6703 19.001 19.6616C20.8238 17.6529 21.8335 15.0375 21.8333 12.325C21.8333 12.0448 21.722 11.7761 21.5239 11.578C21.3258 11.3799 21.0571 11.2686 20.7769 11.2686C20.4967 11.2686 20.228 11.3799 20.0299 11.578C19.8317 11.7761 19.7204 12.0448 19.7204 12.325C19.7204 14.6599 18.7929 16.8992 17.1419 18.5502C15.4908 20.2012 13.2516 21.1288 10.9167 21.1288C8.58176 21.1288 6.34249 20.2012 4.69147 18.5502C3.04044 16.8992 2.1129 14.6599 2.1129 12.325Z" fill="white"/>
</svg>
