<svg width="31" height="13" viewBox="0 0 31 13" fill="none" xmlns="http://www.w3.org/2000/svg">
<path d="M2 0.5C2.39773 0.5 2.77926 0.658271 3.06055 0.939453C3.34176 1.22067 3.4999 1.60232 3.5 2V5.16602C5.13019 3.58181 7.07258 2.34707 9.20996 1.54688C11.7437 0.598309 14.4722 0.287982 17.1543 0.642578C19.8362 0.997222 22.3898 2.00577 24.5898 3.58008C26.789 5.15378 28.5675 7.2442 29.7686 9.66699L29.8281 9.80273C29.8813 9.94053 29.914 10.0856 29.9248 10.2334C29.9391 10.4307 29.9142 10.6297 29.8516 10.8174C29.789 11.0048 29.6903 11.1781 29.5605 11.3271C29.4306 11.4764 29.272 11.5987 29.0947 11.6865C28.9175 11.7743 28.7247 11.8269 28.5273 11.8398C28.33 11.8528 28.1315 11.8266 27.9443 11.7627C27.7572 11.6988 27.5848 11.5977 27.4365 11.4668C27.2882 11.3359 27.1667 11.1769 27.0801 10.999V10.998C26.0391 8.89914 24.4691 7.10791 22.5254 5.7998C20.5803 4.49082 18.3274 3.71036 15.9893 3.53711C13.6514 3.36397 11.3089 3.80369 9.19238 4.81152C7.37254 5.67814 5.77444 6.94029 4.51074 8.5H10C10.3977 8.5 10.7793 8.65827 11.0605 8.93945C11.3418 9.22067 11.4999 9.60232 11.5 10C11.5 10.3978 11.3419 10.7802 11.0605 11.0615C10.7793 11.3426 10.3977 11.5 10 11.5H2C1.60231 11.5 1.22073 11.3426 0.939453 11.0615C0.658149 10.7802 0.5 10.3978 0.5 10V2C0.500104 1.60232 0.658241 1.22067 0.939453 0.939453C1.22074 0.658271 1.60227 0.5 2 0.5Z" fill="white" stroke="white"/>
</svg>
